<svg id="Layer_1" data-name="Layer 1" xmlns="http://www.w3.org/2000/svg" viewBox="0 0 960 540"><defs><style>.cls-1{fill:#f3f444;}.cls-2{fill:#68ee44;}.cls-3{fill:#22d550;}.cls-4{fill:#1dbf71;}.cls-5{fill:#09a96e;}.cls-6{fill:#1660d8;}.cls-7{fill:#34bdfc;}.cls-8{fill:#3480fc;}.cls-9{fill:#1558ba;}</style></defs><title>WN final logo</title><path class="cls-1" d="M804.52,323.43H784.57l-83.89,0H681.39a61.89,61.89,0,1,1,123.13,0Z"/><path class="cls-2" d="M248.23,214.86l.11-.17.1.27v0l.8,2.18,22.13,60.61,2.46,6.72,1.81,5L282.41,308l8.88,24.32,4,11.07v0l.12.33,3.28,9,6.05,16.55,5.93,16.22,0,.06-2.7,2.13-.67.53-.12.09L305,390.11l-56.76,44.67-.11-.08L224,415.75,222,414.13l-4.83-3.8-23.88-18.8-5.66-4.46-.3-.24-15.8-12.43L155,361.4l-.11-.09-.15-.12,12.06-32.05,50.68-134.7,14,41.38,1.14,3.35,0-.06,15.57-24.23h0Z"/><path class="cls-3" d="M248.47,214.86l.78,2.32,22.13,60.61,11,30.22,12.95,35.43,3.39,9.3,6.05,16.55,5.95,16.28-2.7,2.13L305,390.11l-56.76,44.67-.11-.08L224,415.75l-6.89-5.42-29.84-23.5-15.8-12.43L155,361.4l-.11-.09c3.35-2.9,28-2.7,44.06-65.27C202.83,280.88,215.39,257.5,248.47,214.86Z"/><path class="cls-4" d="M275.65,289.48,282.41,308l8.88,24.32,0,.13,4.82,13.12-1.77-.26,3.87,16.32L305,390.11l-56.76,44.67-.11-.08L222,414.13l-4.83-3.8-23.88-18.8c4.58-1.54,22.76-2.17,40.15-47.12C237.68,333.39,248.8,317.25,275.65,289.48Z"/><path class="cls-5" d="M295.35,343.44l.12.33,3.28,9,6.05,16.55,5.93,16.22-2.68,2.17-.54.44-.13.11-.12.09L305,390.11l-56.76,44.67-.11-.08L224,415.75c4.93-.69,18.71-2.06,35.26-34.09,4.05-7.84,13.19-18.69,33.54-36.08Z"/><polygon class="cls-5" points="307.51 388.12 308.05 387.68 308.05 387.7 307.51 388.12"/><polygon class="cls-5" points="295.36 343.44 298.75 352.74 295.47 343.77 295.35 343.44 295.36 343.44"/><path class="cls-6" d="M285.74,269.64l.74,2.05-.75-2Z"/><polygon class="cls-7" points="346.06 353.39 322.94 371.58 316.25 353.23 311.98 341.55 307.41 329.04 307.41 329.03 289.48 279.91 289.15 279.02 288.92 278.37 286.48 271.69 285.73 269.64 285.7 269.55 264.34 211.07 259.9 198.91 258.3 194.53 256.15 188.62 255.14 185.86 255.04 185.6 239.61 209.59 227.09 172.57 252.55 104.9 270.31 152.1 272.54 158 278.8 174.66 283.78 187.9 300.11 231.29 302.93 238.79 304.3 242.41 307.13 249.94 309.39 255.95 312.39 263.92 329.49 309.36 332.27 316.75 340.41 338.38 346.06 353.39"/><path class="cls-8" d="M346.06,353.39,323,371.58l-6.7-18.35L312,341.55l-1-2.75-4.61-12.63L289.15,279l-.23-.65-1.19-3.26-1.25-3.42-.82-2.24L259.9,198.91a148.37,148.37,0,0,1,18.9-24.25l24,63.66.17.47,1.37,3.62L309.39,256l5.61,14.9,7.64,20.32,9.63,25.58,2.68,7.13,5.46,14.5Z"/><path class="cls-6" d="M297.24,223.71l48.82,129.68L323,371.58l-36.53-99.79S296.38,249.27,297.24,223.71Z"/><path class="cls-9" d="M322.8,291.28l23.26,62.11L323,371.58l-14.88-40.89C316.73,319.43,319.77,309,322.8,291.28Z"/><path class="cls-8" d="M283.78,187.9l-9.35,17.48-10.09,5.69-4.44-12.16-1.63-4.21c5.19-16.46,8.22-40.72,6.93-55.87L272.54,158l6.26,16.66Z"/><path class="cls-5" d="M295.34,343.4v0l-2.51,2.14h0Z"/><path class="cls-3" d="M525.3,405.61l-18.74-49.8h-23L474.06,381l-19.24,51.18h20.5L480,418h30.17l4.7,14.17h20.38Zm-40.74-1.84,4-12L495,372l9.06,27.42,1.44,4.32Z"/><path class="cls-3" d="M534.13,355.81v17.66h18.68v58.66h19.47V373.47H591V355.81Z"/><path class="cls-3" d="M648.42,355.81v44.82c0,10.12-5.14,14.93-13.79,14.93s-13.81-4.81-13.81-14.93V355.81H601.23v46.66a41.77,41.77,0,0,0,1,9.71c3.43,14.37,15,21.35,32.35,21.35,10.18,0,18.36-2.4,24-7.36,6-5.13,9.21-13,9.21-23.7V355.81Z"/><path class="cls-3" d="M730.56,402.36c7.63-4.14,12.29-11,12.29-20.18a32.6,32.6,0,0,0-.35-4.81c-2-12.73-12.2-21.56-30.3-21.56H681.56v76.32H701V406.61h12.32l13.43,25.52h20.73ZM712.2,390.92H701V373.47H712.2c6.51,0,10.94,3,10.94,8.71C723.14,388.72,717.89,390.92,712.2,390.92Z"/><path class="cls-3" d="M775,414.56V401.92h26V385.23H775V373.47h29.62V355.81H755.49v76.32h50.15V414.56Z"/><polygon class="cls-3" points="446.85 355.81 446.85 432.13 429.78 432.13 398.66 387.63 398.66 432.13 379.07 432.13 379.07 432.07 286.13 432.07 379.07 355.81 396.14 355.81 427.26 400.27 427.26 355.81 446.85 355.81"/><path class="cls-4" d="M446.85,360v72.18H429.78l-5.6-8-25.52-36.48v44.49H379.07v-.06H286.13l68-55.78,25-20.48h17.07l31.12,44.47V355.81h11.58C441.51,357.08,444.18,358.45,446.85,360Z"/><path class="cls-4" d="M535.27,432.13H514.89L510.19,418H480l-4.61,13.93-.09.24h-20.5l.47-1.27L474.06,381a92.14,92.14,0,0,0,14.46,10.82l-4,12h21l-1.44-4.32a120.2,120.2,0,0,0,21.21,6.16Z"/><path class="cls-4" d="M552.81,408.19c6.48,0,13,.12,19.47.53v23.41H552.81Z"/><path class="cls-4" d="M658.68,426.17c-5.69,5-13.87,7.36-24,7.36-17.33,0-28.92-7-32.35-21.35A309.52,309.52,0,0,1,658.68,426.17Z"/><path class="cls-5" d="M398.66,411.13v21H379.07v-.06H286.13l68-55.78a115.91,115.91,0,0,1,30.74,22.9A89.09,89.09,0,0,0,398.66,411.13Z"/><path class="cls-5" d="M424.18,424.12a134.15,134.15,0,0,0,22.67,5.69v2.32H429.78Z"/><path class="cls-5" d="M475.41,431.89l-.09.24h-20.5l.47-1.27c3.82.39,7.13.56,9.83.62C468.55,431.57,472,431.69,475.41,431.89Z"/><path class="cls-2" d="M610.26,355.81h10.56v4.61A99.24,99.24,0,0,1,610.26,355.81Z"/><path class="cls-2" d="M648.42,355.81h19.47v12.7h-.5a137.78,137.78,0,0,1-19-1.23Z"/><path class="cls-2" d="M742.5,377.37A376.69,376.69,0,0,0,698,369.92c-5.45-.59-10.91-1-16.39-1.17V355.81H712.2C730.3,355.81,740.48,364.64,742.5,377.37Z"/><path class="cls-2" d="M775,373.47v11.76h26v13.4c-14.25-7.83-30-13.63-45.46-17.95V355.81h49.12v17.66Z"/><path class="cls-8" d="M441.84,249.41l-4.6,15.25-11.18,37.16-16.77-52.41h-15.9l-16.92,52.41-15.75-52.41H337.41l29.21,79.74h20.44l14.28-47.74,16.43,47.74h20.32l15-44.08,12.17-35.66Z"/><path class="cls-8" d="M474.37,249.41v79.74h22.26V249.41Z"/><path class="cls-8" d="M534.64,310.82V249.41H512.26v79.74h56.37V310.82Z"/><path class="cls-8" d="M658.4,275.48c-5.66-16.21-22-26.07-46.16-26.07H580.33v79.74h31.91a77,77,0,0,0,8.47-.44c25.31-2.64,39.95-17.39,39.95-39.41A41.17,41.17,0,0,0,658.4,275.48Zm-46.16,35.34h-9.51v-43h9.51c15,0,26.16,7.3,26.16,21.44S627.19,310.82,612.24,310.82Z"/><path class="cls-7" d="M534.28,249.41h.36v.21Z"/><path class="cls-7" d="M658.4,275.48a413.74,413.74,0,0,0-57.28-11.81c-6.22-.8-12.43-1.27-18.65-1.59-.65,0-1.38-.06-2.14-.12V249.41h31.91C636.43,249.41,652.74,259.27,658.4,275.48Z"/><path class="cls-6" d="M453.11,285.07l-14.67,43-.35,1H417.77l-4-11.49-12.47-36.25-5,16.86-9.24,30.88H366.62L342.45,263.2l-5-13.79h23.31l7.33,24.37,8.42,28,5.93-18.33,11-34.08h15.9l16.77,52.41,11.18-37.16a65.16,65.16,0,0,1,7.21,10A43.12,43.12,0,0,0,453.11,285.07Z"/><path class="cls-6" d="M474.37,297.19a114.31,114.31,0,0,0,22.26,5.51v26.45H474.37Z"/><path class="cls-6" d="M568.63,313v16.16H512.26v-25c5.48.29,11,.76,16.42,1.46,1.82.24,3.81.53,6,.85v4.34h24.28C562,311.47,565.25,312.2,568.63,313Z"/><path class="cls-6" d="M620.71,328.71a77,77,0,0,1-8.47.44H580.33V315.9C592.79,319.18,606.43,323.38,620.71,328.71Z"/><path class="cls-9" d="M396.3,298.27l-9.24,30.88H366.62L342.45,263.2a114.87,114.87,0,0,1,25.6,10.58l8.42,28,5.93-18.33A73.7,73.7,0,0,1,396.3,298.27Z"/><path class="cls-9" d="M438.44,328.1l-.35,1H417.77l-4-11.49C421.37,322.67,430.14,326,438.44,328.1Z"/></svg>
